<svg height="512" viewBox="0 0 60 60" width="512" xmlns="http://www.w3.org/2000/svg"><g id="Page-1" fill="none" fill-rule="evenodd"><g id="011---Star" fill="rgb(0,0,0)" fill-rule="nonzero"><path id="Shape" d="m59.8716 24.3208c.3410201-1.0299216-.0154117-2.1625029-.8848-2.8115-2.1566973-1.3518652-4.4680334-2.4396634-6.8843-3.24-3.5398107-1.0542498-7.2270547-1.5279882-10.9184-1.4028-1.0042982-3.7184724-2.5756393-7.25996825-4.6587-10.4998-1.4506095-2.14532003-3.1492119-4.11204159-5.0606-5.8594-.8649127-.66639893-2.0706341-.66500171-2.934.0034-1.9079063 1.74504937-3.6038348 3.70855109-5.0528 5.85-2.0845609 3.24146636-3.6570548 6.7848648-4.6621 10.5054-3.6934206-.1249847-7.382685.3494665-10.9243 1.4049-2.41087412.7988011-4.71732183 1.8836708-6.87 3.2314-.87418271.6473624-1.23479284 1.7822806-.8946 2.8155.98291214 2.414793 2.24091567 4.7082309 3.7491 6.8349 2.26943822 3.0319214 4.99706741 5.6920422 8.0849 7.8848-1.2778908 3.6601246-1.99434098 7.4926103-2.125 11.3672-.02578892 2.6275141.243803 5.2496036.8037 7.8169.2984558 1.0510774 1.2576713 1.7768455 2.3503 1.7783 2.5229226-.2407961 5.0068898-.7894753 7.3965-1.6338 3.4839608-1.3300168 6.7302557-3.2139721 9.6135-5.5791 2.881196 2.3635737 6.1250575 4.2465289 9.6064 5.5762 2.3966256.8473891 4.8882961 1.3970746 7.419 1.6367 1.0837331-.0060749 2.033586-.7262443 2.332-1.7681.5613275-2.5700836.8317612-5.1951554.8062-7.8257-.1305306-3.87506-.8469824-7.7080264-2.125-11.3686 3.0870712-2.1922035 5.8141989-4.8514524 8.0835-7.8823 1.5081948-2.1265878 2.7663256-4.4198788 3.7495-6.8345zm-13.5884 13.5015c-.2748157.1942748-.4379996.5100497-.4375.8466-.0000845.1172992.0205666.2336899.061.3438 1.3634054 3.6784663 2.1260851 7.5523379 2.2588 11.4731.0180381 2.4163744-.2267339 4.8275462-.73 7.191-.0455659.1833188-.2062888.3148267-.395.3232-2.2858667-.2343251-4.5361139-.737468-6.7041-1.499-3.5387318-1.351983-6.8166483-3.3064854-9.6885-5.7769-.373514-.3176995-.922286-.3176995-1.2958 0-2.8740027 2.4720316-6.1544529 4.4276006-9.6959 5.78-2.16099.7583751-4.4035369 1.2604444-6.6816 1.4959-.1976822-.0038399-.3676678-.1410711-.4131-.3335-.5016532-2.3606505-.745416-4.7688061-.727-7.1821.1328522-3.9202913.89553-7.7936803 2.2588-11.4717.0404819-.1170156.0610999-.2399799.061-.3638.0001276-.3310015-.1637204-.6405711-.4375-.8266-3.1718665-2.1435608-5.95963615-4.8065484-8.2461-7.877-1.37687376-1.949937-2.53194851-4.0473713-3.4438-6.2534-.0709431-.2100834.000179-.442005.1767-.5762 1.96421486-1.2127179 4.06195406-2.1944591 6.2515-2.9257 3.5902562-1.0708557 7.3397579-1.5073952 11.08-1.29.2779155.0078455.5466974-.0996166.7426-.2969.1501362-.1470963.2518285-.3364917.2915-.5429.9441143-3.7705112 2.4979142-7.3614441 4.6-10.6309 1.3269938-1.94625921 2.8675026-3.73799631 4.5928-5.3418.1356605-.11573023.334887-.11716473.4722-.0034 1.7287745 1.60608514 3.271954 3.40100499 4.6006 5.3511 2.0884646 3.2487452 3.635279 6.8151993 4.58 10.56.0500312.535025.5141743.9347172 1.0507.9048 3.7379994-.2173644 7.4852802.2184918 11.0736 1.288 2.1950798.732783 4.2978142 1.7175557 6.2661 2.9346.1712885.1347857.2386344.363136.1679.5693l-.0019.0059c-.9122017 2.2047126-2.067121 4.300968-3.4434 6.25-2.2862785 3.069389-5.0735134 5.7315049-8.2446 7.8745z"/><circle id="Oval" cx="30" cy="6" r="1"/><path id="Shape" d="m28.5142 8.1426c-.2272699-.13672395-.499595-.17741956-.7569068-.11311035-.2573119.0643092-.4784704.2283397-.6146932.45591035-1.7421976 2.9122116-3.1232315 6.0257671-4.1126 9.2719-.1252721.5322723.2002174 1.0664644.7306804 1.1991895s1.0691676-.1852402 1.2093196-.7137895c.9470202-3.0526004 2.2518196-5.9824578 3.8872-8.7285.2838828-.4734971.1303459-1.08746528-.343-1.3716z"/></g></g></svg>