<svg height="512pt" viewBox="0 0 512 512" width="512pt" xmlns="http://www.w3.org/2000/svg"><path d="m417.773438 66.828125c-51.949219 0-94.214844 42.203125-94.214844 94.078125 0 28.710938 13.207031 55.671875 35.230468 73.367188l-54.296874 95.46875c-10.46875-3.886719-21.625-5.902344-32.886719-5.902344-8.710938 0-17.222657 1.164062-25.445313 3.464844l-30.574218-66.011719c17.992187-11.085938 33.320312-26.097657 44.835937-44.011719 14.59375-22.707031 22.308594-49.03125 22.308594-76.128906 0-77.832032-63.417969-141.152344-141.367188-141.152344-77.945312 0-141.363281 63.320312-141.363281 141.148438 0 77.828124 63.414062 141.140624 141.363281 141.140624 16.300781 0 32.109375-2.699218 47.160157-8.035156l30.417968 65.660156c-25.632812 17.3125-41.550781 46.542969-41.550781 78.003907 0 51.878906 42.265625 94.082031 94.214844 94.082031 51.953125 0 94.21875-42.203125 94.21875-94.082031 0-28.703125-13.207031-55.660157-35.242188-73.363281l54.292969-95.464844c10.464844 3.890625 21.621094 5.910156 32.898438 5.910156 51.957031 0 94.226562-42.210938 94.226562-94.09375 0-51.875-42.269531-94.078125-94.226562-94.078125zm-387.773438 74.320313c0-61.285157 49.957031-111.148438 111.363281-111.148438 61.410157 0 111.367188 49.863281 111.367188 111.148438 0 21.335937-6.066407 42.054687-17.546875 59.914062-11.191406 17.414062-26.957032 31.347656-45.605469 40.296875-15.074219 7.253906-31.296875 10.929687-48.214844 10.929687-61.40625 0-111.363281-49.855468-111.363281-111.140624zm241.609375 340.851562c-35.410156 0-64.214844-28.746094-64.214844-64.082031 0-24.878907 14.621094-47.710938 37.261719-58.175781 8.460938-3.917969 17.527344-5.902344 26.953125-5.902344 11.128906 0 22.09375 2.882812 31.703125 8.339844 20.054688 11.386718 32.511719 32.746093 32.511719 55.738281 0 35.335937-28.808594 64.082031-64.214844 64.082031zm146.164063-257c-11.148438 0-22.113282-2.886719-31.714844-8.351562-20.046875-11.386719-32.5-32.742188-32.5-55.742188 0-35.332031 28.804687-64.078125 64.214844-64.078125 35.414062 0 64.226562 28.746094 64.226562 64.078125 0 35.339844-28.8125 64.09375-64.226562 64.09375zm0 0"/></svg>